# Blender v2.62 (sub 0) OBJ File: 'cruiser.blend'
# www.blender.org
mtllib cruiser.mtl
o Cube
v 5.426521 -0.182167 -0.243263
v 5.426521 -0.182167 0.243263
v 1.383546 -0.367871 -0.344544
v 1.383546 -0.367871 0.344544
v 5.426521 0.182167 -0.243263
v 5.426521 0.182167 0.243263
v 1.383546 0.367871 -0.344544
v 1.383546 0.367871 0.344544
v 5.426521 0.000000 -0.428835
v 5.426521 0.000000 0.428835
v 1.383546 0.000000 -0.670555
v 1.383546 0.000000 0.670555
v 6.218274 -0.106901 -0.133077
v 6.218274 -0.106901 0.133077
v 6.218275 0.106901 -0.133077
v 6.218275 0.106901 0.133077
v 6.218275 0.000000 -0.208965
v 6.218275 0.000000 0.208965
v 6.464241 -0.106901 -0.133076
v 6.464241 -0.106901 0.133076
v 6.464242 0.084326 -0.097513
v 6.464242 0.084326 0.097513
v 6.464241 -0.000000 -0.208965
v 6.464241 -0.000000 0.208965
v 3.405033 0.299130 -0.293903
v 3.405033 0.299130 0.293903
v 6.209667 -0.106718 -0.134385
v 6.209667 -0.106718 0.134385
v 6.218274 -0.186050 -0.190499
v 6.218274 -0.186050 0.190499
v 6.218275 -0.184621 -0.346970
v 6.218275 -0.184621 0.346970
v 6.464241 -0.186050 -0.190498
v 6.464241 -0.186050 0.190498
v 6.464241 -0.184621 -0.346970
v 6.464241 -0.184621 0.346970
v 6.218763 -0.015047 -0.066538
v 6.218763 -0.015047 0.066538
v 6.464241 -0.015047 -0.066537
v 6.464241 -0.015047 0.066537
v -2.015998 -0.367874 -0.344547
v -2.015998 -0.367874 0.344547
v -2.015998 -0.000003 -0.670558
v -2.015998 -0.000003 0.670558
v -2.015998 0.562488 -0.344547
v -2.015998 0.562488 0.344547
v 1.306835 0.455378 -0.344545
v 1.306835 0.455378 0.344545
v 1.383546 0.367871 -0.344544
v 1.383546 0.367871 0.344544
v 1.383546 0.000000 -0.670555
v 1.383546 0.000000 0.670555
v -2.015998 -0.000003 -0.670558
v -2.015998 -0.000003 0.670558
v 1.384506 0.347401 -0.439420
v 1.384506 0.347401 0.439420
v 1.384506 0.067070 -0.765432
v 1.384506 0.067070 0.765432
v -2.015038 0.067067 -0.765435
v -2.015038 0.067067 0.765435
v -2.015038 0.532261 -0.439424
v -2.015038 0.532261 0.439424
v 1.103491 0.368423 -0.439422
v 1.103491 0.368423 0.439422
v 5.260474 0.212809 -0.249545
v 5.260474 0.212809 0.249545
v 5.260474 0.050684 -0.412436
v 5.260474 0.050684 0.412436
v 5.261068 0.203788 -0.299931
v 5.261068 0.203788 0.299931
v 5.261068 0.080243 -0.430500
v 5.261068 0.080243 0.430500
v -3.672555 0.511808 -0.875891
v -3.672555 0.511808 0.875891
v -3.672555 1.074300 -0.450051
v -3.672555 1.074300 0.450051
v -3.670960 0.578878 -0.999821
v -3.670960 0.578878 0.999821
v -3.670961 1.044072 -0.573980
v -3.670961 1.044072 0.573980
v -6.005065 0.731604 -0.824533
v -6.005065 0.731604 0.824533
v -6.816680 1.059936 -0.596470
v -6.816680 1.059936 0.596470
v -6.003470 0.798675 -0.941196
v -6.003470 0.798675 0.941196
v -6.815084 1.029709 -0.760719
v -6.815084 1.029709 0.760719
v 1.070292 -0.364954 -0.978431
v 1.070292 -0.364954 0.978431
v 1.071252 -0.297883 -1.116869
v 1.071252 -0.297883 1.116869
v -0.008950 0.012559 -0.722467
v -0.008950 0.012559 0.722467
v -0.007989 0.079629 -0.824689
v -0.007989 0.079629 0.824689
v 1.124843 -0.230014 -0.701851
v 1.124843 -0.230014 0.701851
v 1.125803 -0.174389 -0.801156
v 1.125803 -0.174389 0.801156
v 0.078405 -0.047678 -0.630202
v 0.078405 -0.047678 0.630202
v 0.079269 0.002386 -0.709888
v 0.079269 0.002386 0.709888
v 0.940862 -0.510182 -0.927317
v 0.940862 -0.510182 0.927317
v 0.941822 -0.442915 -1.040713
v 0.941822 -0.442915 1.040713
v -0.194860 -0.153453 -0.725509
v -0.194860 -0.153453 0.725509
v -0.193900 -0.086186 -0.814227
v -0.193900 -0.086186 0.814227
v 0.879280 -0.605950 -1.180317
v 0.879280 -0.605950 1.180317
v 0.880240 -0.550324 -1.316667
v 0.880240 -0.550324 1.316667
v -0.556090 -0.249220 -1.033550
v -0.556090 -0.249220 1.033550
v -0.555130 -0.193594 -1.151059
v -0.555130 -0.193594 1.151059
v 0.938963 -0.519997 -0.927559
v 0.938963 -0.519997 0.927559
v -0.196760 -0.163267 -0.725751
v -0.196760 -0.163267 0.725751
v 0.877381 -0.781229 -1.523123
v 0.877381 -0.781229 1.523123
v -1.209402 -0.424500 -1.333954
v -1.209402 -0.424500 1.333954
v 0.919968 -0.618147 -0.929978
v 0.919968 -0.618147 0.929978
v -0.215754 -0.261417 -0.728170
v -0.215754 -0.261417 0.728170
v 0.858386 -0.879379 -1.526241
v 0.858386 -0.879379 1.526241
v -1.228397 -0.522649 -1.337073
v -1.228397 -0.522649 1.337073
v 0.818110 -0.888281 -1.480978
v 0.818110 -0.888281 1.480978
v -1.217672 -0.587737 -1.403828
v -1.217672 -0.587737 1.403828
v 0.093633 -0.889267 -2.133003
v 0.093633 -0.889267 2.133003
v -1.534404 -0.532537 -1.868640
v -1.534404 -0.532537 1.868640
v 0.803211 -0.987158 -1.482758
v 0.803211 -0.987158 1.482758
v -1.232571 -0.686615 -1.405986
v -1.232571 -0.686615 1.405986
v 0.078735 -0.988144 -2.134565
v 0.078735 -0.988144 2.134565
v -1.549302 -0.631415 -1.870202
v -1.549302 -0.631415 1.870202
v 0.966436 -0.771204 -1.143955
v 0.966436 -0.771204 1.143955
v -0.373435 -0.401898 -0.895901
v -0.373435 -0.401898 0.895901
v 0.951538 -0.870082 -1.145329
v 0.951538 -0.870082 1.145329
v -0.388334 -0.500775 -0.897275
v -0.388334 -0.500775 0.897275
v -2.789867 -0.587737 -1.403828
v -2.789867 -0.587737 1.403828
v -3.106598 -0.532537 -1.868640
v -3.106598 -0.532537 1.868640
v -2.804766 -0.686615 -1.405986
v -2.804766 -0.686615 1.405986
v -3.121497 -0.631415 -1.870202
v -3.121497 -0.631415 1.870202
v 1.321423 -0.076578 -0.734748
v 1.321423 -0.076578 0.734748
v 1.322383 -0.009508 -0.829625
v 1.322383 -0.009508 0.829625
v 5.264356 -0.070120 -0.495039
v 5.264356 -0.070120 0.495039
v 5.264950 -0.010484 -0.482963
v 5.264950 -0.010484 0.482963
v 3.405033 -0.275019 -0.293903
v 3.405033 -0.275019 0.293903
v 1.731046 0.000000 -0.549695
v 1.731046 0.000000 0.549695
v 1.383546 -0.183935 -0.507549
v 1.383546 -0.183935 0.507549
v 1.731046 -0.137509 -0.421799
v 1.731046 -0.137509 0.421799
v 1.550434 -0.916276 -1.638865
v 1.550434 -0.916276 1.638865
v 2.187170 -0.980899 -1.938573
v 2.187170 -0.980899 1.938573
v 1.550434 -1.081818 -1.500069
v 1.550434 -1.081818 1.500069
v 2.187170 -1.104658 -1.801126
v 2.187170 -1.104658 1.801126
v 1.807045 -1.244593 -3.141158
v 1.807045 -1.244593 3.141158
v 2.443781 -1.244593 -3.393116
v 2.443781 -1.244593 3.393116
v 1.807045 -1.410135 -2.887147
v 1.807045 -1.410135 2.887147
v 2.443781 -1.368351 -3.164100
v 2.443781 -1.368351 3.164100
v -3.957948 -1.385957 -2.451233
v -3.957948 -1.385957 2.451233
v -3.957948 -1.551499 -2.276055
v -3.957948 -1.551499 2.276055
v -3.916152 -1.491691 -2.549078
v -3.916152 -1.491691 2.549078
v -3.916152 -1.657233 -2.373899
v -3.916152 -1.657233 2.373899
v 6.217198 -0.066790 -0.066538
v 6.217198 -0.066790 0.066538
v 6.217199 0.040111 -0.066538
v 6.217199 0.040111 0.066538
v 6.217198 -0.013340 -0.104482
v 6.217198 -0.013340 0.104482
v 6.212895 -0.066699 -0.067192
v 6.212895 -0.066699 0.067192
v 2.667801 -0.066790 -0.066538
v 2.667801 -0.066790 0.066538
v 2.667802 0.040111 -0.066538
v 2.667802 0.040111 0.066538
v 2.667801 -0.013340 -0.104482
v 2.667801 -0.013340 0.104482
v 2.663498 -0.066699 -0.067192
v 2.663498 -0.066699 0.067192
v -2.015998 -0.367874 0.000000
v -2.015998 0.562488 0.000000
v 1.306835 0.455378 0.000000
v 1.383546 -0.367871 0.000000
v 1.383546 0.367871 0.000000
v 3.405033 -0.275019 0.000000
v 5.426521 -0.182167 0.000000
v 2.667802 0.040111 0.000000
v 2.663498 -0.066699 0.000000
v 6.212895 -0.066699 0.000000
v 6.217199 0.040111 0.000000
v 6.209667 -0.106718 0.000000
v 6.218763 -0.015047 -0.066538
v 6.218763 -0.015047 0.066538
v 6.464241 -0.015047 -0.066537
v 6.464241 -0.015047 0.066537
v 6.218763 -0.015047 0.000000
v 6.464241 -0.015047 0.000000
v 6.464242 0.084326 0.000000
v 6.464241 -0.015047 0.000000
v 6.218275 0.106901 0.000000
v 5.426521 0.182167 0.000000
v 3.405033 0.299130 0.000000
vn 0.076727 -0.419140 -0.904674
vn 0.076727 -0.419140 0.904674
vn 0.183306 0.659438 -0.729068
vn 0.183306 0.659438 0.729068
vn -0.000002 -0.587229 0.809421
vn -0.000002 -0.587229 -0.809421
vn 0.083465 0.697368 -0.711836
vn 0.083465 0.697368 0.711836
vn -0.000001 -0.586649 0.809841
vn -0.000001 -0.586649 -0.809841
vn -0.000001 -0.999958 -0.009131
vn -0.000001 -0.999958 0.009131
vn -1.000000 0.000002 -0.000003
vn -1.000000 0.000002 0.000003
vn 1.000000 -0.000002 0.000003
vn 1.000000 -0.000002 -0.000003
vn 0.000002 0.598720 -0.800959
vn 0.000002 0.598720 0.800959
vn 0.035047 0.833171 -0.551904
vn 0.035047 0.833171 0.551904
vn 0.000000 0.000000 0.000000
vn 0.302356 0.919672 -0.250570
vn 0.302356 0.919672 0.250570
vn -0.010408 -0.826613 -0.562675
vn -0.010408 -0.826613 0.562675
vn 0.043716 0.979162 -0.198322
vn 0.043716 0.979162 0.198322
vn 0.221062 0.728617 -0.648266
vn 0.221062 0.728617 0.648266
vn 0.999819 -0.013627 0.013268
vn 0.999819 -0.013627 -0.013268
vn -0.042562 -0.677423 0.734362
vn -0.042562 -0.677423 -0.734362
vn 0.053069 0.747959 -0.661620
vn 0.053069 0.747959 0.661620
vn 0.071460 0.553637 -0.829687
vn 0.071460 0.553637 0.829687
vn -0.036689 -0.612845 0.789351
vn -0.036689 -0.612845 -0.789351
vn -0.093348 -0.869079 -0.485786
vn -0.093348 -0.869079 0.485786
vn 0.270444 0.605110 -0.748800
vn 0.270444 0.605110 0.748800
vn -0.242242 -0.539103 0.806651
vn -0.242242 -0.539103 -0.806651
vn -0.190017 -0.836020 -0.514746
vn -0.190017 -0.836020 0.514746
vn 0.042692 0.683975 -0.728255
vn 0.042692 0.683975 0.728255
vn 0.006403 0.978690 -0.205242
vn 0.006403 0.978690 0.205242
vn -0.351341 -0.927775 -0.125671
vn -0.351341 -0.927775 0.125671
vn 0.837200 -0.477070 -0.267393
vn 0.837200 -0.477070 0.267393
vn -0.034671 -0.626864 0.778357
vn -0.034671 -0.626864 -0.778357
vn 0.184089 0.845553 0.501150
vn 0.184089 0.845553 -0.501150
vn -0.447389 0.736068 0.507983
vn -0.447389 0.736068 -0.507983
vn 0.886713 -0.403732 -0.225259
vn 0.886713 -0.403732 0.225259
vn -0.570729 0.707716 0.416421
vn -0.570729 0.707716 -0.416421
vn 0.051408 0.657822 -0.751417
vn 0.051408 0.657822 0.751417
vn -0.049267 -0.603246 0.796032
vn -0.049267 -0.603246 -0.796032
vn -0.394507 -0.801290 -0.449776
vn -0.394507 -0.801290 0.449776
vn -0.261839 -0.883223 -0.389047
vn -0.261839 -0.883223 0.389047
vn 0.957126 -0.262756 -0.121935
vn 0.957126 -0.262756 0.121935
vn 0.179054 0.883332 -0.433203
vn 0.179054 0.883332 0.433203
vn 0.131140 0.861313 -0.490858
vn 0.131140 0.861313 0.490858
vn -0.184448 -0.879263 0.439177
vn -0.184448 -0.879263 -0.439177
vn -0.082118 0.047522 -0.995489
vn -0.082118 0.047522 0.995489
vn 0.981714 -0.189470 -0.018392
vn 0.981714 -0.189470 0.018392
vn 0.157954 -0.054873 0.985921
vn 0.157954 -0.054873 -0.985921
vn -0.528292 0.078387 0.845437
vn -0.528292 0.078387 -0.845437
vn 0.000000 -0.021813 0.999762
vn 0.000000 -0.021813 -0.999762
vn 0.165885 0.980316 -0.107064
vn 0.165885 0.980316 0.107064
vn -0.131234 -0.861524 0.490464
vn -0.131234 -0.861524 -0.490464
vn -0.165887 -0.980307 0.107144
vn -0.165887 -0.980307 -0.107144
vn -0.151939 0.038497 -0.987640
vn -0.151939 0.038497 0.987640
vn 0.666378 -0.087891 -0.740416
vn 0.666378 -0.087891 0.740416
vn 0.000000 0.993022 0.117930
vn 0.000000 0.993022 -0.117930
vn 0.171361 -0.039499 0.984416
vn 0.171361 -0.039499 -0.984416
vn -0.525060 0.063961 0.848658
vn -0.525060 0.063961 -0.848658
vn -0.129063 -0.875874 0.464959
vn -0.129063 -0.875874 -0.464959
vn 0.923425 -0.133397 -0.359850
vn 0.923425 -0.133397 0.359850
vn 0.128930 0.875669 -0.465383
vn 0.128930 0.875669 0.465383
vn -0.814760 0.112068 0.568865
vn -0.814760 0.112068 -0.568865
vn 0.000000 0.015797 -0.999875
vn 0.000000 0.015797 0.999875
vn 0.000000 -0.993004 -0.118079
vn 0.000000 -0.993004 0.118079
vn 0.062480 -0.546508 -0.835120
vn 0.062480 -0.546508 0.835120
vn -0.047157 -0.587107 0.808134
vn -0.047157 -0.587107 -0.808134
vn -0.848171 0.436563 0.300032
vn -0.848171 0.436563 -0.300032
vn 0.997461 -0.008537 0.070702
vn 0.997461 -0.008537 -0.070702
vn 0.157157 -0.755842 0.635614
vn 0.157157 -0.755842 -0.635614
vn 0.118807 -0.965887 0.230101
vn 0.118807 -0.965887 -0.230101
vn -0.065093 0.768898 -0.636049
vn -0.065093 0.768898 0.636049
vn -0.992275 -0.081082 -0.093890
vn -0.992275 -0.081082 0.093890
vn 0.964471 0.188250 0.185360
vn 0.964471 0.188250 -0.185360
vn -0.182158 -0.843544 -0.505225
vn -0.182158 -0.843544 0.505225
vn 0.969033 0.204629 0.138211
vn 0.969033 0.204629 -0.138211
vn -0.056007 0.960920 -0.271102
vn -0.056007 0.960920 0.271102
vn -0.038079 0.978536 -0.202529
vn -0.038079 0.978536 0.202529
vn -0.960393 -0.202527 -0.191385
vn -0.960393 -0.202527 0.191385
vn -0.161154 0.679116 0.716122
vn -0.161154 0.679116 -0.716122
vn -0.024789 -0.791544 -0.610609
vn -0.024789 -0.791544 0.610609
vn 0.054187 -0.955440 0.290169
vn 0.054187 -0.955440 -0.290169
vn 0.996763 -0.080391 0.000002
vn 0.996763 -0.080391 -0.000002
vn -0.999933 0.006709 -0.009442
vn -0.999933 0.006709 0.009442
vn -0.096022 -0.853156 0.512742
vn -0.096022 -0.853156 -0.512742
vn 0.000000 -0.578864 0.815424
vn 0.000000 -0.578864 -0.815424
vn 0.000000 0.572826 0.819677
vn 0.000000 0.572826 -0.819677
vn 0.000000 -0.990441 -0.137934
vn 0.000000 -0.990441 0.137934
vn -1.000000 -0.000001 -0.000001
vn -1.000000 -0.000001 0.000001
vn 1.000000 -0.000006 0.000003
vn 1.000000 -0.000006 -0.000003
vn 0.011480 0.677153 -0.735753
vn 0.011480 0.677153 0.735753
vn 0.037406 0.676312 -0.735665
vn 0.037406 0.676312 0.735665
vn 0.038430 0.750082 -0.660227
vn 0.038430 0.750082 0.660227
vn 0.000001 -0.663244 -0.748404
vn 0.000001 -0.663244 0.748404
vn 0.000001 -0.971955 -0.235168
vn 0.000001 -0.971955 0.235168
vn 0.033524 -0.627907 -0.777566
vn 0.033524 -0.627907 0.777566
vn -0.000000 -0.681047 -0.732240
vn -0.000000 -0.681047 0.732240
vn 0.183569 -0.660827 -0.727743
vn 0.183569 -0.660827 0.727743
vn 0.036241 0.604032 -0.796136
vn 0.036241 0.604032 0.796136
vn 0.997544 -0.040548 0.057106
vn 0.997544 -0.040548 -0.057106
vn -1.000000 -0.000001 0.000000
vn 0.032218 0.999481 0.000000
vn 0.000001 -1.000000 0.000000
vn 0.751976 0.659190 0.000000
vn 0.045884 -0.998947 0.000000
vn 0.999189 -0.040265 0.000000
vn 0.000000 1.000000 0.000000
vn 0.095896 -0.995391 0.000000
vn 0.996763 -0.080392 0.000000
vn 0.111027 -0.575286 -0.810382
vn 0.111027 -0.575286 0.810382
vn -0.000001 -1.000000 0.000000
vn 1.000000 -0.000010 0.000000
vn 0.091399 0.995814 0.000000
vn 0.094635 0.995512 0.000000
vn 0.057763 0.998330 0.000000
vn 0.033985 0.999422 0.000000
usemtl Material
s off
f 183//1 177//1 3//1 181//1
f 4//2 178//2 184//2 182//2
f 9//3 5//3 15//3 17//3
f 16//4 6//4 10//4 18//4
f 19//5 13//5 29//5 33//5
f 30//6 14//6 20//6 34//6
f 17//7 15//7 21//7 23//7
f 22//8 16//8 18//8 24//8
f 37//9 13//9 19//9 39//9
f 20//10 14//10 38//10 40//10
f 29//11 31//11 35//11 33//11
f 36//12 32//12 30//12 34//12
f 13//13 17//13 31//13 29//13
f 32//14 18//14 14//14 30//14
f 23//15 19//15 33//15 35//15
f 34//16 20//16 24//16 36//16
f 17//17 23//17 35//17 31//17
f 36//18 24//18 18//18 32//18
f 47//19 63//19 61//19 45//19
f 62//20 64//20 48//20 46//20
f 7//21 11//21 51//21 49//21
f 52//21 12//21 8//21 50//21
f 45//22 61//22 79//22 75//22
f 80//23 62//23 46//23 76//23
f 93//24 53//24 59//24 95//24
f 60//25 54//25 94//25 96//25
f 55//26 49//26 65//26 69//26
f 66//27 50//27 56//27 70//27
f 63//28 47//28 7//28 55//28
f 8//29 48//29 64//29 56//29
f 65//30 67//30 71//30 69//30
f 72//31 68//31 66//31 70//31
f 49//32 51//32 67//32 65//32
f 68//33 52//33 50//33 66//33
f 57//34 55//34 69//34 71//34
f 70//35 56//35 58//35 72//35
f 57//36 71//36 175//36 171//36
f 176//37 72//37 58//37 172//37
f 73//38 75//38 83//38 81//38
f 84//39 76//39 74//39 82//39
f 77//40 73//40 81//40 85//40
f 82//41 74//41 78//41 86//41
f 61//42 59//42 77//42 79//42
f 78//43 60//43 62//43 80//43
f 43//44 45//44 75//44 73//44
f 76//45 46//45 44//45 74//45
f 59//46 43//46 73//46 77//46
f 74//47 44//47 60//47 78//47
f 79//48 77//48 85//48 87//48
f 86//49 78//49 80//49 88//49
f 75//50 79//50 87//50 83//50
f 88//51 80//51 76//51 84//51
f 85//52 81//52 83//52 87//52
f 84//53 82//53 86//53 88//53
f 51//54 89//54 91//54 57//54
f 92//55 90//55 52//55 58//55
f 93//56 89//56 51//56
f 52//57 90//57 94//57
f 101//58 97//58 99//58 103//58
f 100//59 98//59 102//59 104//59
f 109//60 101//60 103//60 111//60
f 104//61 102//61 110//61 112//61
f 97//62 105//62 107//62 99//62
f 108//63 106//63 98//63 100//63
f 109//64 111//64 119//64 117//64
f 120//65 112//65 110//65 118//65
f 111//66 103//66 99//66 107//66
f 100//67 104//67 112//67 108//67
f 101//68 109//68 105//68 97//68
f 106//69 110//69 102//69 98//69
f 89//70 93//70 95//70 91//70
f 96//71 94//71 90//71 92//71
f 113//72 117//72 119//72 115//72
f 120//73 118//73 114//73 116//73
f 107//74 105//74 113//74 115//74
f 114//75 106//75 108//75 116//75
f 111//76 107//76 115//76 119//76
f 116//77 108//77 112//77 120//77
f 127//78 123//78 121//78 125//78
f 122//79 124//79 128//79 126//79
f 109//80 117//80 113//80 105//80
f 114//81 118//81 110//81 106//81
f 127//82 125//82 133//82 135//82
f 134//83 126//83 128//83 136//83
f 125//84 121//84 129//84 133//84
f 130//85 122//85 126//85 134//85
f 121//86 123//86 131//86 129//86
f 132//87 124//87 122//87 130//87
f 123//88 127//88 135//88 131//88
f 136//89 128//89 124//89 132//89
f 147//90 139//90 161//90 165//90
f 162//91 140//91 148//91 166//91
f 143//92 139//92 137//92 141//92
f 138//93 140//93 144//93 142//93
f 131//94 135//94 133//94 129//94
f 134//95 136//95 132//95 130//95
f 145//96 147//96 151//96 149//96
f 152//97 148//97 146//97 150//97
f 143//98 141//98 149//98 151//98
f 150//99 142//99 144//99 152//99
f 141//100 137//100 145//100 149//100
f 146//101 138//101 142//101 150//101
f 139//102 143//102 163//102 161//102
f 164//103 144//103 140//103 162//103
f 153//104 155//104 159//104 157//104
f 160//105 156//105 154//105 158//105
f 139//106 147//106 159//106 155//106
f 160//107 148//107 140//107 156//107
f 147//108 145//108 157//108 159//108
f 158//109 146//109 148//109 160//109
f 145//110 137//110 153//110 157//110
f 154//111 138//111 146//111 158//111
f 137//112 139//112 155//112 153//112
f 156//113 140//113 138//113 154//113
f 161//114 163//114 167//114 165//114
f 168//115 164//115 162//115 166//115
f 143//116 151//116 167//116 163//116
f 168//117 152//117 144//117 164//117
f 151//118 147//118 165//118 167//118
f 166//119 148//119 152//119 168//119
f 169//120 171//120 175//120 173//120
f 176//121 172//121 170//121 174//121
f 67//122 51//122 169//122 173//122
f 170//123 52//123 68//123 174//123
f 51//124 57//124 171//124 169//124
f 172//125 58//125 52//125 170//125
f 71//126 67//126 173//126 175//126
f 174//127 68//127 72//127 176//127
f 183//128 181//128 189//128 191//128
f 190//129 182//129 184//129 192//129
f 191//130 189//130 197//130 199//130
f 198//131 190//131 192//131 200//131
f 11//132 179//132 187//132 185//132
f 188//133 180//133 12//133 186//133
f 181//134 11//134 185//134 189//134
f 186//135 12//135 182//135 190//135
f 179//136 183//136 191//136 187//136
f 192//137 184//137 180//137 188//137
f 195//138 199//138 197//138 193//138
f 198//139 200//139 196//139 194//139
f 187//140 191//140 199//140 195//140
f 200//141 192//141 188//141 196//141
f 185//142 193//142 205//142 201//142
f 206//143 194//143 186//143 202//143
f 185//144 187//144 195//144 193//144
f 196//145 188//145 186//145 194//145
f 203//146 201//146 205//146 207//146
f 206//147 202//147 204//147 208//147
f 189//148 185//148 201//148 203//148
f 202//149 186//149 190//149 204//149
f 193//150 197//150 207//150 205//150
f 208//151 198//151 194//151 206//151
f 197//152 189//152 203//152 207//152
f 204//153 190//153 198//153 208//153
f 17//154 213//154 215//154 27//154
f 216//155 214//155 18//155 28//155
f 15//156 17//156 213//156 211//156
f 214//157 18//157 16//157 212//157
f 27//158 13//158 209//158 215//158
f 210//159 14//159 28//159 216//159
f 211//160 219//160 221//160 213//160
f 222//161 220//161 212//161 214//161
f 213//162 221//162 223//162 215//162
f 224//163 222//163 214//163 216//163
f 215//164 209//164 217//164 223//164
f 218//165 210//165 216//165 224//165
f 41//166 45//166 43//166
f 44//167 46//167 42//167
f 19//168 23//168 21//168 39//168
f 22//169 24//169 20//169 40//169
f 59//170 61//170 63//170 95//170
f 64//171 62//171 60//171 96//171
f 11//21 93//21 51//21
f 52//21 94//21 12//21
f 57//172 91//172 95//172
f 96//173 92//173 58//173
f 55//174 57//174 95//174 63//174
f 96//175 58//175 56//175 64//175
f 3//176 41//176 53//176 11//176
f 54//177 42//177 4//177 12//177
f 11//178 53//178 93//178
f 94//179 54//179 12//179
f 1//180 177//180 179//180 9//180
f 180//181 178//181 2//181 10//181
f 177//182 183//182 179//182
f 180//183 184//183 178//183
f 1//184 9//184 17//184 27//184
f 18//185 10//185 2//185 28//185
f 5//186 9//186 179//186 25//186
f 180//187 10//187 6//187 26//187
f 219//188 223//188 221//188
f 222//189 224//189 220//189
f 45//190 41//190 225//190 226//190
f 225//190 42//190 46//190 226//190
f 47//191 45//191 226//191 227//191
f 226//191 46//191 48//191 227//191
f 41//192 3//192 228//192 225//192
f 228//192 4//192 42//192 225//192
f 7//193 47//193 227//193 229//193
f 227//193 48//193 8//193 229//193
f 3//194 177//194 230//194 228//194
f 230//194 178//194 4//194 228//194
f 177//194 1//194 231//194 230//194
f 231//194 2//194 178//194 230//194
f 219//195 232//195 233//195 223//195
f 233//195 232//195 220//195 224//195
f 215//196 223//196 233//196 234//196
f 233//196 224//196 216//196 234//196
f 211//196 219//196 232//196 235//196
f 232//196 220//196 212//196 235//196
f 1//197 27//197 236//197 231//197
f 236//197 28//197 2//197 231//197
f 27//198 215//198 234//198 236//198
f 234//198 216//198 28//198 236//198
f 13//199 27//199 17//199
f 18//200 28//200 14//200
f 37//21 39//21 239//21 237//21
f 240//21 40//21 38//21 238//21
f 237//201 239//201 242//201 241//201
f 242//201 240//201 238//201 241//201
f 39//202 21//202 243//202 244//202
f 243//202 22//202 40//202 244//202
f 21//203 15//203 245//203 243//203
f 245//203 16//203 22//203 243//203
f 15//204 5//204 246//204 245//204
f 246//204 6//204 16//204 245//204
f 5//205 25//205 247//205 246//205
f 247//205 26//205 6//205 246//205
f 25//206 49//206 229//206 247//206
f 229//206 50//206 26//206 247//206
f 7 25
f 8 26
f 11 43
f 12 44
f 43 53
f 44 54
f 43 51
f 44 52
